<svg width="32" height="32" viewBox="0 0 32 32" fill="none" xmlns="http://www.w3.org/2000/svg">
<path d="M29.3334 11.4773V22.3333C29.3334 23.4402 28.9099 24.5051 28.1498 25.3096C27.3896 26.1142 26.3504 26.5973 25.2454 26.66L25 26.6667H7.00002C5.89317 26.6667 4.82825 26.2433 4.02371 25.4831C3.21918 24.7229 2.73602 23.6837 2.67335 22.5787L2.66669 22.3333V11.4773L15.536 18.2187C15.6792 18.2937 15.8384 18.3328 16 18.3328C16.1616 18.3328 16.3209 18.2937 16.464 18.2187L29.3334 11.4773ZM7.00002 5.33333H25C26.0741 5.3332 27.11 5.73199 27.9067 6.45236C28.7035 7.17272 29.2043 8.16331 29.312 9.232L16 16.2053L2.68802 9.232C2.79138 8.20575 3.25742 7.25002 4.00235 6.53662C4.74729 5.82321 5.72226 5.39892 6.75202 5.34L7.00002 5.33333H25H7.00002Z" fill="white"/>
</svg>
