<svg width="33" height="33" viewBox="0 0 33 33" fill="none" xmlns="http://www.w3.org/2000/svg">
<path d="M3.16666 6.66667C3.16666 5.74479 3.82869 5 4.64814 5H28.3518C29.1713 5 29.8333 5.74479 29.8333 6.66667V8.52083C29.8333 9.33854 29.2454 10 28.5185 10C26.7917 10 25.3889 11.5729 25.3889 13.5208V20.026C24.7917 20.026 24.1944 20.2292 23.6852 20.6354C22.8518 21.2813 21.8287 21.6927 20.9444 21.6927V15C20.9444 12.2396 18.9537 10 16.5 10C14.0463 10 12.0555 12.2396 12.0555 15V21.6927C11.1759 21.6927 10.1481 21.2813 9.31943 20.6354C8.80555 20.2292 8.20832 20.026 7.6111 20.026V13.5208C7.6111 11.5729 6.21295 10 4.48147 10C3.75462 10 3.16666 9.33854 3.16666 8.52083V6.66667ZM17.3565 21.974C18.3981 22.7813 19.6713 23.3333 20.9444 23.3333C22.1898 23.3333 23.5092 22.7708 24.5278 21.974C25.0787 21.5313 25.8287 21.5677 26.3426 22.0625C27.0093 22.6823 27.8472 23.1563 28.6852 23.375C29.4815 23.5833 29.9768 24.4792 29.7917 25.375C29.6065 26.2708 28.8102 26.8281 28.0139 26.6198C26.8796 26.3229 25.9352 25.7604 25.3194 25.3177C23.9768 26.1302 22.4722 26.6667 20.9444 26.6667C19.4676 26.6667 18.1389 26.151 17.2222 25.6823C16.9537 25.5417 16.7083 25.4063 16.5 25.2813C16.2917 25.4063 16.0509 25.5469 15.7778 25.6823C14.8611 26.151 13.5324 26.6667 12.0555 26.6667C10.5278 26.6667 9.02314 26.1302 7.68055 25.3229C7.06018 25.7604 6.12036 26.3281 4.9861 26.625C4.1898 26.8333 3.39351 26.276 3.20832 25.3802C3.02314 24.4844 3.51851 23.5885 4.3148 23.3802C5.15277 23.1615 5.99073 22.6875 6.6574 22.0677C7.17129 21.5781 7.92129 21.5417 8.47221 21.9792C9.49536 22.7708 10.8102 23.3333 12.0555 23.3333C13.3287 23.3333 14.6018 22.7813 15.6435 21.974C16.1574 21.5625 16.8426 21.5625 17.3565 21.974V21.974Z" fill="#0552C7"/>
</svg>
