<svg width="33" height="33" viewBox="0 0 33 33" fill="none" xmlns="http://www.w3.org/2000/svg">
<path fill-rule="evenodd" clip-rule="evenodd" d="M11.9707 5.56534C12.5333 4.91631 13.229 4.39594 14.0105 4.03958C14.792 3.68321 15.6411 3.49919 16.5 3.5C18.3093 3.5 19.9307 4.3 21.0293 5.56534C21.8863 5.50415 22.7463 5.62811 23.5511 5.92881C24.3559 6.2295 25.0865 6.69989 25.6933 7.308C26.3012 7.91475 26.7714 8.64517 27.0721 9.44968C27.3728 10.2542 27.4969 11.114 27.436 11.9707C28.0848 12.5334 28.6049 13.2291 28.961 14.0107C29.3172 14.7922 29.501 15.6412 29.5 16.5C29.5008 17.3589 29.3168 18.208 28.9604 18.9895C28.6041 19.771 28.0837 20.4667 27.4347 21.0293C27.4956 21.886 27.3715 22.7458 27.0708 23.5503C26.7701 24.3548 26.2999 25.0852 25.692 25.692C25.0853 26.2999 24.3548 26.7701 23.5503 27.0708C22.7458 27.3715 21.886 27.4956 21.0293 27.4347C20.4667 28.0837 19.771 28.6041 18.9895 28.9604C18.208 29.3168 17.3589 29.5008 16.5 29.5C15.6411 29.5008 14.792 29.3168 14.0105 28.9604C13.229 28.6041 12.5333 28.0837 11.9707 27.4347C11.1138 27.496 10.2538 27.3723 9.44908 27.0718C8.64431 26.7713 7.91364 26.3012 7.30667 25.6933C6.69863 25.0864 6.22829 24.3558 5.9276 23.551C5.62691 22.7463 5.50291 21.8863 5.564 21.0293C4.91522 20.4666 4.3951 19.7709 4.03897 18.9893C3.68284 18.2078 3.49902 17.3588 3.5 16.5C3.5 14.6907 4.3 13.0693 5.56534 11.9707C5.50435 11.114 5.62841 10.2542 5.9291 9.44963C6.22979 8.64511 6.70006 7.9147 7.308 7.308C7.9147 6.70006 8.64511 6.22978 9.44963 5.92909C10.2542 5.62841 11.114 5.50434 11.9707 5.56534V5.56534ZM21.3133 14.0813C21.3933 13.9747 21.4512 13.8532 21.4836 13.7239C21.516 13.5946 21.5221 13.4602 21.5018 13.3285C21.4815 13.1968 21.435 13.0704 21.3651 12.9569C21.2953 12.8434 21.2034 12.745 21.095 12.6675C20.9866 12.59 20.8638 12.535 20.7337 12.5056C20.6037 12.4763 20.4692 12.4732 20.338 12.4966C20.2068 12.52 20.0816 12.5694 19.9697 12.6419C19.8579 12.7144 19.7616 12.8085 19.6867 12.9187L15.372 18.9587L13.2067 16.7933C13.0171 16.6167 12.7664 16.5205 12.5073 16.5251C12.2482 16.5297 12.0011 16.6346 11.8178 16.8178C11.6346 17.0011 11.5297 17.2482 11.5251 17.5073C11.5205 17.7664 11.6167 18.0171 11.7933 18.2067L14.7933 21.2067C14.896 21.3092 15.0197 21.3882 15.156 21.4382C15.2922 21.4881 15.4377 21.5078 15.5824 21.4959C15.727 21.484 15.8673 21.4407 15.9935 21.3691C16.1197 21.2975 16.2289 21.1993 16.3133 21.0813L21.3133 14.0813V14.0813Z" fill="#0552C7"/>
</svg>
