<svg width="33" height="33" viewBox="0 0 33 33" fill="none" xmlns="http://www.w3.org/2000/svg">
<path d="M16.5 2.5C8.76875 2.5 2.5 8.76875 2.5 16.5C2.5 24.2312 8.76875 30.5 16.5 30.5C24.2312 30.5 30.5 24.2312 30.5 16.5C30.5 8.76875 24.2312 2.5 16.5 2.5ZM22.0156 20.8031L21.1219 22.0219C21.1024 22.0484 21.0779 22.0708 21.0498 22.0879C21.0217 22.1049 20.9904 22.1162 20.9579 22.1212C20.9254 22.1261 20.8922 22.1246 20.8603 22.1167C20.8284 22.1087 20.7983 22.0946 20.7719 22.075L15.6031 18.3062C15.5709 18.2831 15.5448 18.2526 15.5268 18.2173C15.5089 18.1819 15.4997 18.1428 15.5 18.1031V9.5C15.5 9.3625 15.6125 9.25 15.75 9.25H17.2531C17.3906 9.25 17.5031 9.3625 17.5031 9.5V17.2344L21.9594 20.4562C22.0719 20.5344 22.0969 20.6906 22.0156 20.8031Z" fill="#0552C7"/>
</svg>
