<svg width="33" height="33" viewBox="0 0 33 33" fill="none" xmlns="http://www.w3.org/2000/svg">
<path d="M6.97612 9.73802C6.97612 8.34881 7.52798 7.0165 8.5103 6.03418C9.49262 5.05186 10.8249 4.5 12.2141 4.5C13.6033 4.5 14.9357 5.05186 15.918 6.03418C16.9003 7.0165 17.4522 8.34881 17.4522 9.73802C17.4522 11.1272 16.9003 12.4595 15.918 13.4419C14.9357 14.4242 13.6033 14.976 12.2141 14.976C10.8249 14.976 9.49262 14.4242 8.5103 13.4419C7.52798 12.4595 6.97612 11.1272 6.97612 9.73802V9.73802ZM19.3569 12.5951C19.3569 12.0323 19.4677 11.475 19.6831 10.9551C19.8985 10.4351 20.2142 9.96266 20.6121 9.56471C21.0101 9.16675 21.4825 8.85107 22.0025 8.63569C22.5225 8.42032 23.0797 8.30947 23.6425 8.30947C24.2053 8.30947 24.7626 8.42032 25.2826 8.63569C25.8025 8.85107 26.275 9.16675 26.673 9.56471C27.0709 9.96266 27.3866 10.4351 27.602 10.9551C27.8173 11.475 27.9282 12.0323 27.9282 12.5951C27.9282 13.7317 27.4767 14.8218 26.673 15.6255C25.8692 16.4292 24.7792 16.8808 23.6425 16.8808C22.5059 16.8808 21.4158 16.4292 20.6121 15.6255C19.8084 14.8218 19.3569 13.7317 19.3569 12.5951V12.5951ZM3.16666 25.9283C3.16666 23.5287 4.11987 21.2274 5.8166 19.5307C7.51334 17.834 9.8146 16.8808 12.2141 16.8808C14.6137 16.8808 16.9149 17.834 18.6117 19.5307C20.3084 21.2274 21.2616 23.5287 21.2616 25.9283V25.9321L21.2604 26.0832C21.2577 26.2447 21.2139 26.4028 21.1333 26.5428C21.0527 26.6827 20.9378 26.7998 20.7994 26.8832C18.208 28.4437 15.2392 29.2662 12.2141 29.2615C9.07514 29.2615 6.13677 28.393 3.63014 26.8832C3.49154 26.8 3.37639 26.6829 3.29553 26.543C3.21466 26.403 3.17075 26.2448 3.16793 26.0832L3.16666 25.9283V25.9283ZM23.1664 25.9321L23.1651 26.1149C23.158 26.5382 23.0569 26.9545 22.8692 27.3339C25.086 27.4707 27.3001 27.0287 29.2945 26.0514C29.4488 25.976 29.5797 25.8604 29.6736 25.7166C29.7675 25.5729 29.8208 25.4065 29.8278 25.2349C29.8727 24.1699 29.6417 23.1112 29.1573 22.1616C28.6729 21.212 27.9514 20.4036 27.0629 19.8147C26.1743 19.2258 25.1487 18.8763 24.0854 18.8001C23.0221 18.7239 21.9572 18.9236 20.9937 19.3798C22.4072 21.27 23.1692 23.5679 23.1651 25.9283V25.9321H23.1664Z" fill="#0552C7"/>
</svg>
