<svg width="32" height="32" viewBox="0 0 32 32" fill="none" xmlns="http://www.w3.org/2000/svg">
<path d="M27.3391 8.81618C23.35 2.66646 15.2058 0.838168 8.88989 4.66097C2.74017 8.48377 0.745669 16.7942 4.73468 22.9439L5.06709 23.4425L3.73743 28.4288L8.72368 27.0991L9.22231 27.4316C11.383 28.595 13.7099 29.2598 16.0369 29.2598C18.53 29.2598 21.0231 28.595 23.1838 27.2653C29.3336 23.2763 31.1619 15.1321 27.3391 8.81618V8.81618ZM23.8487 21.6142C23.1838 22.6115 22.3528 23.2763 21.1893 23.4425C20.5245 23.4425 19.6935 23.775 16.3693 22.4453C13.5437 21.1156 11.2168 18.9549 9.55473 16.4618C8.55748 15.2983 8.05885 13.8024 7.89264 12.3066C7.89264 10.9769 8.39127 9.81344 9.22231 8.98239C9.55473 8.64998 9.88715 8.48377 10.2196 8.48377H11.0506C11.383 8.48377 11.7154 8.48377 11.8816 9.1486C12.2141 9.97964 13.0451 11.9741 13.0451 12.1404C13.2113 12.3066 13.2113 12.639 13.0451 12.8052C13.2113 13.1376 13.0451 13.47 12.8789 13.6362C12.7127 13.8024 12.5465 14.1349 12.3803 14.3011C12.0479 14.4673 11.8816 14.7997 12.0479 15.1321C12.7127 16.1294 13.5437 17.1266 14.3748 17.9577C15.372 18.7887 16.3693 19.4535 17.5327 19.9522C17.8652 20.1184 18.1976 20.1184 18.3638 19.786C18.53 19.4535 19.361 18.6225 19.6935 18.2901C20.0259 17.9577 20.1921 17.9577 20.5245 18.1239L23.1838 19.4535C23.5163 19.6197 23.8487 19.786 24.0149 19.9522C24.1811 20.4508 24.1811 21.1156 23.8487 21.6142V21.6142Z" fill="#0552C7"/>
</svg>
